<svg xmlns="http://www.w3.org/2000/svg" version="1.1" xmlns:xlink="http://www.w3.org/1999/xlink" xmlns:svgjs="http://svgjs.dev/svgjs" width="100%" height="100%" viewBox="0 0 1000 600"><rect width="1000" height="600" x="0" y="0" fill="lightgray"/><g><circle r="166.66666666666666" cx="323.6111399332682" cy="345.83336840154266" fill="lightgreen" transform="matrix(0.7964601627947072,0,0,0.796460162794707,0,24.55751437873309)"/><path d="M314.28567382046305 284.1206689367351L348.35718861950403 376.4916540493407L350.94759895753486 376.4916540493407L350.94759895753486 287.5643909155291Q350.94759895753486 284.1206689367351 351.3742547779164 281.0731273625812Q351.80091059829795 278.0255857884273 353.2332551381503 275.77040502355334Q354.6960750937442 273.5152242586794 357.53028875770735 272.1743059660517Q360.36450242167047 270.833387673424 365.30151977179986 270.833387673424L365.30151977179986 270.833387673424Q370.7566191895354 270.833387673424 373.9260624266555 272.1743059660517Q377.0955056637756 273.5152242586794 378.68022728233564 275.77040502355334Q380.2954243166372 278.0255857884273 380.72208013701874 281.0731273625812Q381.14873595740033 284.1206689367351 381.14873595740033 287.5643909155291L381.14873595740033 287.5643909155291L381.14873595740033 396.1787726183751Q381.14873595740033 400.90246205831374 380.87445721572647 405.2909219250954Q380.63065388979413 409.67938179187706 379.16783393420025 413.1840546021541Q377.7354893943479 416.6582519966895 374.44414449426165 418.7305802671142Q371.18327500991694 420.8333839532804 365.30151977179986 420.8333839532804L365.30151977179986 420.8333839532804L351.1609268677256 420.8333839532804Q346.1020078546301 420.8333839532804 342.74971212306076 418.85248193008033Q339.3669409757499 416.87157990688036 337.111760210876 414.0373662429172Q334.85657944600206 411.203152578954 333.51566115337437 408.09466017331704Q332.1747428607466 404.98616776767994 331.4433328829497 402.82241325003076L331.4433328829497 402.82241325003076L299.0784413654349 315.20559299310526L296.5185064431456 315.20559299310526L296.5185064431456 404.13285612691686Q296.5185064431456 407.5461026899693 296.09185062276407 410.5936442641232Q295.66519480238253 413.6411858382771 294.20237484678864 415.896366603151Q292.7700303069363 418.1515473680249 289.9358166429731 419.49246566065267Q287.0711275632684 420.8333839532804 282.1645856288806 420.8333839532804L282.1645856288806 420.8333839532804Q276.58758454817894 420.8333839532804 273.35719047957576 419.49246566065267Q270.1572718267141 418.1515473680249 268.54207479241256 415.896366603151Q266.92687775811095 413.6411858382771 266.5002219377294 410.5936442641232Q266.07356611734787 407.5461026899693 266.07356611734787 404.13285612691686L266.07356611734787 404.13285612691686L266.07356611734787 295.48799900832927Q266.07356611734787 290.8862112313568 266.34784485902173 286.4368005330921Q266.62212360069555 281.98738983482735 268.11541897203097 278.4827170245503Q269.60871434336644 275.00851963001486 272.9000592434527 272.93619135959017Q276.16092872779734 270.833387673424 282.1645856288806 270.833387673424L282.1645856288806 270.833387673424L296.30517853295487 270.833387673424Q301.66885170346575 270.833387673424 305.0211474350351 272.93619135959017Q308.40391858234597 275.00851963001486 310.5371976842537 277.47702830507956L310.5371976842537 277.47702830507956Q312.91428011209376 280.3721928005258 314.28567382046305 284.1206689367351L314.28567382046305 284.1206689367351Z " fill="white" transform="matrix(0.7964601627947072,0,0,0.796460162794707,0,24.55751437873309)"/><path d="M621.550546265612 284.04550886450204L655.4293341443998 375.8939937129869L658.0050917201575 375.8939937129869L658.0050917201575 287.4697512887445Q658.0050917201575 284.04550886450204 658.4293341443997 281.01520583419904Q658.8535765686422 277.984902803896 660.2778189928847 275.7424785614717Q661.7323644474302 273.5000543190475 664.550546265612 272.16672098571416Q667.3687280837937 270.8333876523808 672.2778189928846 270.8333876523808L672.2778189928846 270.8333876523808Q677.7020614171271 270.8333876523808 680.8535765686423 272.16672098571416Q684.0050917201573 273.5000543190475 685.5808492959151 275.7424785614717Q687.1869099019756 277.984902803896 687.6111523262181 281.01520583419904Q688.0353947504603 284.04550886450204 688.0353947504603 287.4697512887445L688.0353947504603 287.4697512887445L688.0353947504603 395.4697512887444Q688.0353947504603 400.16672098571416 687.7626674777331 404.53035734935054Q687.5202432353088 408.8939937129869 686.0656977807636 412.3788421978354Q684.6414553565211 415.8333876523808 681.3687280837938 417.8939937129869Q678.1263038413696 419.9849028038959 672.2778189928846 419.9849028038959L672.2778189928846 419.9849028038959L658.2172129322786 419.9849028038959Q653.1869099019756 419.9849028038959 649.8535765686422 418.01520583419904Q646.489940205006 416.04550886450204 644.2475159625817 413.22732704632017Q642.0050917201575 410.4091452281384 640.6717583868241 407.3182361372293Q639.3384250534907 404.22732704632017 638.611152326218 402.07581189480504L638.611152326218 402.07581189480504L606.4293341443998 314.9545997735929L603.8838795989452 314.9545997735929L603.8838795989452 403.3788421978353Q603.8838795989452 406.7727815917748 603.4596371747028 409.8030846220778Q603.0353947504605 412.8333876523808 601.580849295915 415.07581189480504Q600.1566068716725 417.3182361372293 597.3384250534907 418.65156947056266Q594.489940205006 419.9849028038959 589.611152326218 419.9849028038959L589.611152326218 419.9849028038959Q584.0656977807635 419.9849028038959 580.8535765686422 418.65156947056266Q577.6717583868241 417.3182361372293 576.0656977807635 415.07581189480504Q574.4596371747028 412.8333876523808 574.0353947504605 409.8030846220778Q573.611152326218 406.7727815917748 573.611152326218 403.3788421978353L573.611152326218 403.3788421978353L573.611152326218 295.3485391675323Q573.611152326218 290.7727815917748 573.8838795989452 286.3485391675323Q574.1566068716725 281.9242967432899 575.641455356521 278.4394482584414Q577.1263038413695 274.984902803896 580.3990311140967 272.9242967432899Q583.641455356521 270.8333876523808 589.611152326218 270.8333876523808L589.611152326218 270.8333876523808L603.6717583868241 270.8333876523808Q609.0050917201575 270.8333876523808 612.3384250534907 272.9242967432899Q615.7020614171271 274.984902803896 617.8232735383392 277.4394482584414L617.8232735383392 277.4394482584414Q620.1869099019756 280.3182361372293 621.550546265612 284.04550886450204L621.550546265612 284.04550886450204ZM711.0353947504603 379.9242967432899L711.0353947504603 353.50005431904754Q711.0353947504603 343.71217553116867 713.7020614171271 336.8939937129869Q716.3687280837938 330.07581189480504 720.5808492959151 325.50005431904754Q724.7929705080361 320.8939937129869 729.9444856595513 318.3485391675323Q735.1263038413696 315.8030846220778 740.1263038413696 314.53035734935054Q745.1263038413696 313.22732704632017 749.4596371747028 312.9242967432899Q753.7626674777331 312.59096340995654 756.2172129322786 312.59096340995654L756.2172129322786 312.59096340995654Q758.6717583868241 312.59096340995654 762.9444856595513 312.9242967432899Q767.1869099019756 313.22732704632017 772.0353947504603 314.53035734935054Q776.8838795989453 315.8030846220778 781.8535765686423 318.3485391675323Q786.7929705080361 320.8939937129869 790.7929705080361 325.50005431904754Q794.7929705080361 330.07581189480504 797.3384250534908 336.8939937129869Q799.9141826292483 343.71217553116867 799.9141826292483 353.50005431904754L799.9141826292483 353.50005431904754L799.9141826292483 379.9242967432899Q799.9141826292483 389.74247856147167 797.3384250534908 396.56066037965354Q794.7929705080361 403.3788421978353 790.7929705080361 407.9545997735929Q786.7929705080361 412.53035734935054 781.8535765686423 415.07581189480504Q776.8838795989453 417.65156947056266 772.0353947504603 418.9242967432899Q767.1869099019756 420.19702401601717 762.9444856595513 420.53035734935054Q758.6717583868241 420.8333876523808 756.2172129322786 420.8333876523808L756.2172129322786 420.8333876523808Q753.7626674777331 420.8333876523808 749.4596371747028 420.53035734935054Q745.1263038413696 420.19702401601717 740.1263038413696 418.9242967432899Q735.1263038413696 417.65156947056266 729.9444856595513 415.07581189480504Q724.7929705080361 412.53035734935054 720.5808492959151 407.9545997735929Q716.3687280837938 403.3788421978353 713.7020614171271 396.56066037965354Q711.0353947504603 389.74247856147167 711.0353947504603 379.9242967432899L711.0353947504603 379.9242967432899ZM743.8535765686423 348.8333876523808L743.8535765686423 387.3788421978354Q743.9747886898543 390.4697512887444 745.3687280837938 392.8333876523808L745.3687280837938 392.8333876523808Q746.5202432353088 394.9545997735929 749.0353947504603 396.59096340995654Q751.5202432353088 398.2576300766233 756.2172129322786 398.2576300766233L756.2172129322786 398.2576300766233Q760.7020614171271 398.2576300766233 763.0960008110666 396.59096340995654Q765.4899402050058 394.9545997735929 766.6717583868241 392.8333876523808L766.6717583868241 392.8333876523808Q767.9444856595513 390.4697512887444 768.1566068716726 387.3788421978354L768.1566068716726 387.3788421978354L768.1566068716726 348.8333876523808Q767.9444856595513 345.62126644025966 766.6717583868241 342.9545997735929L766.6717583868241 342.9545997735929Q765.4899402050058 340.8333876523808 763.0960008110666 338.9545997735929Q760.7020614171271 337.10611492510805 756.2172129322786 337.10611492510805L756.2172129322786 337.10611492510805Q751.5202432353088 337.10611492510805 749.0353947504603 338.9545997735929Q746.5202432353088 340.8333876523808 745.3687280837938 342.9545997735929L745.3687280837938 342.9545997735929Q743.9747886898543 345.62126644025966 743.8535765686423 348.8333876523808L743.8535765686423 348.8333876523808ZM829.7323644474301 313.4394482584414L835.7020614171271 313.4394482584414L835.7020614171271 294.71217553116867Q835.7020614171271 290.2273270463202 836.1869099019756 285.9545997735929Q836.6414553565211 281.71217553116867 838.3687280837938 278.3485391675323Q840.0656977807636 274.984902803896 843.2475159625816 272.9242967432899Q846.4596371747028 270.8333876523808 851.8838795989453 270.8333876523808L851.8838795989453 270.8333876523808Q857.2172129322786 270.8333876523808 860.3990311140968 272.9242967432899Q863.6111523262181 274.984902803896 865.2475159625816 278.3485391675323Q866.9141826292483 281.71217553116867 867.3990311140968 285.9545997735929Q867.8535765686423 290.2273270463202 867.8535765686423 294.71217553116867L867.8535765686423 294.71217553116867L867.8535765686423 313.4394482584414L876.6111523262181 313.4394482584414Q879.3687280837938 313.4394482584414 882.1566068716726 313.71217553116867Q884.9141826292483 313.98490280389603 887.0960008110666 315.2576300766233Q889.2778189928846 316.53035734935054 890.6111523262181 319.10611492510805Q891.9444856595513 321.65156947056266 891.9444856595513 326.22732704632017L891.9444856595513 326.22732704632017Q891.9444856595513 330.59096340995654 890.6111523262181 333.16672098571416Q889.2778189928846 335.71217553116867 887.0960008110666 336.9849028038959Q884.9141826292483 338.2879331069263 882.1566068716726 338.65156947056266Q879.3687280837938 339.01520583419904 876.6111523262181 339.01520583419904L876.6111523262181 339.01520583419904L867.8535765686423 339.01520583419904L867.8535765686423 376.3182361372293Q867.8535765686423 378.4394482584414 868.0353947504603 380.8333876523808Q868.1869099019756 383.22732704632017 869.1566068716726 385.2576300766233Q870.0960008110666 387.2879331069263 872.0353947504603 388.62126644025966Q873.9444856595513 389.9545997735929 877.4596371747028 389.9545997735929L877.4596371747028 389.9545997735929Q881.2778189928846 389.9545997735929 884.0050917201573 390.53035734935054Q886.7323644474301 391.10611492510805 888.4899402050058 392.59096340995654Q890.2475159625816 394.10611492510805 891.0960008110666 396.7727815917748Q891.9444856595513 399.4091452281384 891.9444856595513 403.59096340995654L891.9444856595513 403.59096340995654Q891.9444856595513 407.8333876523808 889.9747886898543 410.9242967432899Q888.0050917201573 414.01520583419904 884.7020614171271 416.04550886450204Q881.3990311140968 418.07581189480504 877.0353947504603 419.01520583419904Q872.6717583868241 419.9849028038959 867.8535765686423 419.9849028038959L867.8535765686423 419.9849028038959Q860.3081220231878 419.9849028038959 854.9141826292483 418.3788421978354Q849.5505462656121 416.8030846220778 845.9747886898543 413.8636906826838Q842.3990311140968 410.9242967432899 840.3384250534908 406.8333876523808Q838.2475159625816 402.71217553116867 837.2475159625816 397.62126644025966Q836.2172129322786 392.50005431904754 835.9747886898543 386.59096340995654Q835.7020614171271 380.68187250086567 835.7020614171271 374.16672098571416L835.7020614171271 374.16672098571416L835.7020614171271 339.01520583419904L829.7323644474301 339.01520583419904Q826.9444856595513 339.01520583419904 824.2475159625816 338.65156947056266Q821.5202432353088 338.2879331069263 819.3990311140968 336.9849028038959Q817.2778189928846 335.71217553116867 815.9444856595513 333.16672098571416Q814.6111523262181 330.59096340995654 814.6111523262181 326.22732704632017L814.6111523262181 326.22732704632017Q814.6111523262181 321.65156947056266 815.9444856595513 319.10611492510805Q817.2778189928846 316.53035734935054 819.3990311140968 315.2576300766233Q821.5202432353088 313.98490280389603 824.2475159625816 313.71217553116867Q826.9444856595513 313.4394482584414 829.7323644474301 313.4394482584414L829.7323644474301 313.4394482584414ZM1000.6111523262181 352.65156947056266L1000.6111523262181 359.2576300766233Q1000.6111523262181 360.9545997735929 1000.3990311140968 363.2576300766233Q1000.1869099019756 365.56066037965354 998.7323644474301 367.62126644025966Q997.3081220231878 369.71217553116867 994.2172129322786 371.19702401601717Q991.1263038413696 372.68187250086567 985.4899402050058 372.68187250086567L985.4899402050058 372.68187250086567L943.0960008110666 372.68187250086567L943.0960008110666 382.9242967432899Q943.0960008110666 385.4697512887444 943.7323644474301 388.22732704632017Q944.3687280837938 391.01520583419904 945.9141826292483 393.3485391675323Q947.4596371747028 395.68187250086567 950.0050917201573 397.19702401601717Q952.5505462656121 398.68187250086567 956.2778189928846 398.68187250086567L956.2778189928846 398.68187250086567Q960.5505462656121 398.68187250086567 962.8535765686423 397.65156947056266Q965.1263038413696 396.65156947056266 966.4596371747028 395.16672098571416Q967.7929705080363 393.68187250086567 968.8535765686423 391.9545997735929Q969.9141826292483 390.2576300766233 971.6717583868241 388.7727815917748Q973.4293341443998 387.2879331069263 976.5808492959151 386.2576300766233Q979.7323644474301 385.2576300766233 985.2778189928846 385.2576300766233L985.2778189928846 385.2576300766233Q987.9444856595513 385.2576300766233 990.4293341443998 385.68187250086567Q992.9444856595513 386.10611492510805 994.8535765686423 387.2879331069263Q996.7626674777331 388.4394482584414 997.9444856595513 390.53035734935054Q999.1263038413696 392.59096340995654 999.1263038413696 395.8939937129869L999.1263038413696 395.8939937129869Q999.1263038413696 402.8333876523808 994.7626674777331 407.4697512887444Q990.3687280837938 412.10611492510805 983.7626674777331 414.8636906826838Q977.1869099019756 417.65156947056266 969.4596371747028 418.8030846220778Q961.7323644474301 419.9849028038959 955.0050917201573 419.9849028038959L955.0050917201573 419.9849028038959Q946.1566068716726 419.8636906826838 938.1869099019756 417.74247856147167Q930.1869099019756 415.62126644025955 924.0656977807636 410.9242967432899Q917.9444856595513 406.22732704632017 914.3081220231878 398.68187250086567Q910.7020614171271 391.10611492510805 910.7020614171271 380.13641795541116L910.7020614171271 380.13641795541116L910.7020614171271 355.19702401601717Q910.7020614171271 345.10611492510805 913.0960008110666 338.04550886450204Q915.4899402050058 331.01520583419904 919.3384250534908 326.3485391675323Q923.1566068716726 321.65156947056266 927.9444856595513 319.04550886450204Q932.7323644474301 316.4394482584414 937.6414553565211 315.16672098571416Q942.5505462656121 313.8636906826838 946.9747886898543 313.56066037965354Q951.3990311140968 313.22732704632017 954.5808492959151 313.22732704632017L954.5808492959151 313.22732704632017Q965.3384250534908 313.22732704632017 972.9747886898543 315.16672098571416Q980.5808492959151 317.07581189480504 985.7020614171271 320.16672098571416Q990.8232735383393 323.2576300766233 993.7929705080363 327.2879331069263Q996.7626674777331 331.3485391675323 998.2778189928846 335.65156947056266Q999.7626674777331 339.9849028038959 1000.1869099019756 344.4091452281384Q1000.6111523262181 348.8333876523808 1000.6111523262181 352.65156947056266L1000.6111523262181 352.65156947056266ZM943.0960008110666 349.2576300766233L943.0960008110666 356.71217553116867L969.7020614171271 356.71217553116867Q969.7020614171271 351.68187250086567 969.4596371747028 347.8030846220778Q969.1869099019756 343.9242967432899 967.8535765686423 341.2576300766233Q966.5202432353088 338.59096340995654 963.7020614171271 337.19702401601717Q960.8838795989453 335.8333876523808 955.6414553565211 335.8333876523808L955.6414553565211 335.8333876523808Q951.2778189928848 335.8333876523808 948.7929705080361 337.19702401601717Q946.2778189928846 338.59096340995654 945.0050917201573 340.68187250086567Q943.7323644474301 342.7424785614718 943.3990311140968 345.10611492510805Q943.0960008110666 347.4394482584414 943.0960008110666 349.2576300766233L943.0960008110666 349.2576300766233ZM1050.671758386824 341.3485391675323L1050.671758386824 341.3485391675323Q1050.671758386824 343.50005431904754 1052.0656977807635 345.3182361372293Q1053.459637174703 347.10611492510805 1055.8535765686424 348.7727815917748Q1058.2475159625815 350.4091452281384 1061.399031114097 352.01520583419904Q1064.520243235309 353.62126644025966 1067.9444856595514 355.19702401601717L1067.9444856595514 355.19702401601717Q1073.1566068716725 357.7727815917748 1078.580849295915 360.71217553116867Q1084.0353947504605 363.62126644025966 1088.489940205006 367.56066037965354Q1092.9747886898544 371.50005431904754 1095.792970508036 376.68187250086567Q1098.611152326218 381.8333876523808 1098.611152326218 388.8636906826839L1098.611152326218 388.8636906826839Q1098.611152326218 395.2576300766233 1096.762667477733 400.16672098571416Q1094.8838795989454 405.07581189480504 1091.792970508036 408.65156947056266Q1088.702061417127 412.19702401601717 1084.611152326218 414.56066037965354Q1080.520243235309 416.8939937129868 1075.9747886898544 418.2879331069263Q1071.459637174703 419.65156947056266 1066.762667477733 420.2576300766233Q1062.0656977807635 420.8333876523808 1057.9141826292484 420.8333876523808L1057.9141826292484 420.8333876523808Q1049.73236444743 420.8333876523808 1043.641455356521 419.4394482584414Q1037.580849295915 418.07581189480504 1033.2172129322785 415.7727815917748Q1028.8535765686424 413.5000543190474 1026.0050917201575 410.56066037965354Q1023.1869099019756 407.62126644025955 1021.6111523262181 404.4394482584414Q1020.0050917201573 401.22732704632017 1019.3687280837938 398.10611492510805Q1018.7323644474301 394.9545997735929 1018.7323644474301 392.2879331069263L1018.7323644474301 392.2879331069263Q1018.7323644474301 385.8939937129869 1022.2778189928846 382.9242967432899Q1025.8535765686424 379.9242967432899 1033.2172129322785 379.9242967432899L1033.2172129322785 379.9242967432899Q1038.550546265612 379.9242967432899 1041.9444856595514 382.8030846220778Q1045.368728083794 385.68187250086567 1045.580849295915 392.07581189480504L1045.580849295915 392.07581189480504Q1045.671758386824 394.19702401601717 1046.7929705080364 395.4697512887444Q1047.9141826292484 396.7727815917748 1049.671758386824 397.56066037965354Q1051.4293341444 398.3485391675323 1053.550546265612 398.62126644025966Q1055.702061417127 398.8939937129869 1057.702061417127 398.8939937129869L1057.702061417127 398.8939937129869Q1061.8535765686424 398.8939937129869 1064.489940205006 396.71217553116867Q1067.0960008110665 394.53035734935054 1067.0960008110665 391.01520583419904L1067.0960008110665 391.01520583419904Q1067.0960008110665 388.01520583419904 1065.338425053491 385.4091452281384Q1063.580849295915 382.8030846220778 1060.702061417127 380.56066037965354Q1057.8232735383394 378.3182361372293 1054.1566068716725 376.2576300766233Q1050.459637174703 374.16672098571416 1046.641455356521 372.04550886450204L1046.641455356521 372.04550886450204Q1041.8232735383394 369.50005431904754 1037.0050917201575 366.62126644025966Q1032.1566068716725 363.74247856147167 1028.1869099019755 360.22732704632017Q1024.2475159625815 356.71217553116867 1021.8232735383393 352.2879331069263Q1019.3687280837938 347.8636906826838 1019.3687280837938 342.22732704632017L1019.3687280837938 342.22732704632017Q1019.3687280837938 333.8939937129869 1022.0656977807636 328.3182361372293Q1024.7929705080364 322.71217553116867 1030.0050917201575 319.2576300766233Q1035.2475159625815 315.8030846220778 1042.73236444743 314.2879331069263Q1050.2475159625815 312.8030846220778 1059.8535765686424 312.59096340995654L1059.8535765686424 312.59096340995654L1061.550546265612 312.59096340995654Q1070.1869099019755 312.59096340995654 1076.1869099019755 314.07581189480504Q1082.2172129322785 315.59096340995654 1086.2172129322785 317.98490280389603Q1090.2172129322785 320.3788421978354 1092.489940205006 323.3485391675323Q1094.792970508036 326.3485391675323 1095.9141826292484 329.3788421978354Q1097.0353947504605 332.4091452281384 1097.2778189928845 335.19702401601717Q1097.550546265612 337.9545997735929 1097.550546265612 339.8636906826838L1097.550546265612 339.8636906826838Q1097.550546265612 343.07581189480504 1096.2172129322785 345.13641795541116Q1094.8838795989454 347.22732704632017 1092.702061417127 348.4394482584414Q1090.520243235309 349.68187250086567 1087.762667477733 350.16672098571416Q1084.9747886898544 350.62126644025966 1082.0050917201575 350.74247856147167L1082.0050917201575 350.74247856147167Q1079.459637174703 350.74247856147167 1077.368728083794 349.8939937129869Q1075.2778189928845 349.04550886450204 1073.7929705080364 347.74247856147167Q1072.308122023188 346.4697512887444 1071.520243235309 344.8636906826838Q1070.702061417127 343.2879331069263 1070.702061417127 341.8030846220778L1070.702061417127 341.8030846220778Q1070.489940205006 337.74247856147167 1067.459637174703 335.62126644025966Q1064.4293341444 333.4697512887444 1060.0656977807635 333.4697512887444L1060.0656977807635 333.4697512887444Q1058.2475159625815 333.4697512887444 1056.580849295915 333.8636906826838Q1054.9444856595514 334.22732704632017 1053.611152326218 335.13641795541116Q1052.2778189928845 336.04550886450204 1051.489940205006 337.53035734935054Q1050.671758386824 339.01520583419904 1050.671758386824 341.3485391675323Z " fill="black" transform="matrix(0.7964601627947072,0,0,0.796460162794707,0,24.55751437873309)"/></g></svg>